<svg xmlns="http://www.w3.org/2000/svg" xmlns:xlink="http://www.w3.org/1999/xlink" version="1.1" x="0px" y="0px" width="100px" height="100px" fill="#c0d72f" viewBox="0 0 100 100" enable-background="new 0 0 100 100" xml:space="preserve">
<path d="M50,2.5C23.767,2.5,2.5,23.767,2.5,50S23.767,97.5,50,97.5c26.232,0,47.5-21.267,47.5-47.5S76.232,2.5,50,2.5z M50,87.952  C29.04,87.952,12.048,70.96,12.048,50c0-8.767,2.974-16.837,7.966-23.263l8.963,8.963c-0.002,0.115-0.008,0.228-0.008,0.344  c0,3.82,1.167,7.024,3.501,9.613c2.334,2.589,6.193,4.987,11.796,7.194L47,53.955v13.157c-2-0.17-5.725-0.722-9.191-1.655  C34.343,64.523,32,63.448,29,62.231v11.205c5,2.292,11,3.509,18,3.649V86h6v-9.083c5-0.495,9.705-1.925,12.893-4.284l7.361,7.354  C66.829,84.979,58.767,87.952,50,87.952z M47,40.494l-5.372-5.372C42.055,33.261,44,32.096,47,31.631V40.494z M57.816,64.573  C56.889,65.68,55,66.429,53,66.815v-7.059L57.816,64.573z M79.986,73.263l-8.743-8.744c0.223-1.056,0.337-2.171,0.337-3.349  c0-2.489-0.545-4.668-1.634-6.536c-1.09-1.867-2.817-3.578-5.153-5.135C62.459,47.943,58,46.104,53,43.981V31.461  c5,0.397,9.184,1.5,13.598,3.311l3.981-9.931C65.345,22.521,60,21.219,53,20.936V15h-6v6.105c-5,0.566-10.113,2.171-13.324,4.817  c-0.21,0.173-0.359,0.35-0.555,0.53l-6.411-6.438c6.425-4.992,14.51-7.965,23.277-7.965c20.959,0,37.958,16.992,37.958,37.952  C87.945,58.766,84.979,66.837,79.986,73.263z"/>
</svg>