<svg xmlns="http://www.w3.org/2000/svg" xmlns:xlink="http://www.w3.org/1999/xlink" version="1.1" id="Layer_1" x="0px" y="0px" width="100px" height="100px" fill="#D9042B" viewBox="5.0 -10.0 100.0 135.0" enable-background="new 0 0 100 100" xml:space="preserve">
<g>
	<g>
		<path fill-rule="evenodd" clip-rule="evenodd" fill="#D9042B" d="M84.988,61.877c-4.116-18.874-21.047-33.864-27.832-35.632    c-0.121-0.031-15.343-0.043-15.554,0c-10.11,2.13-25.976,22.02-28.508,35.128c-5.646,29.236,0.992,37.875,36.285,37.785    C78.434,99.086,91.308,90.854,84.988,61.877z M57.475,75.395c-1.287,1.019-3.038,1.676-5.23,1.988v4.063h-4.912v-3.902    c-0.581-0.038-1.13-0.094-1.646-0.172c-1.01-0.15-1.904-0.336-2.681-0.555c-0.778-0.221-1.446-0.453-2.005-0.701    c-0.56-0.248-1.031-0.48-1.413-0.701l1.802-5.107c0.845,0.469,1.889,0.887,3.131,1.256c1.242,0.371,2.763,0.557,4.564,0.557    c0.901,0,1.644-0.074,2.23-0.227c0.588-0.15,1.057-0.355,1.412-0.617c0.354-0.262,0.6-0.57,0.736-0.928    c0.137-0.355,0.206-0.754,0.206-1.193c0-0.934-0.438-1.711-1.312-2.328c-0.872-0.617-2.373-1.285-4.501-1.998    c-0.928-0.33-1.856-0.707-2.783-1.133c-0.928-0.426-1.76-0.961-2.497-1.607c-0.736-0.645-1.337-1.426-1.8-2.348    c-0.464-0.92-0.696-2.039-0.696-3.355c0-1.32,0.246-2.508,0.737-3.564c0.491-1.059,1.187-1.957,2.087-2.699    c0.901-0.742,1.992-1.311,3.275-1.71c0.37-0.115,0.757-0.208,1.154-0.29v-4.163h4.912v3.926c1.192,0.089,2.274,0.267,3.225,0.548    c1.392,0.412,2.538,0.865,3.438,1.359l-1.841,5.068c-0.793-0.412-1.672-0.775-2.641-1.092c-0.97-0.316-2.136-0.473-3.5-0.473    c-1.528,0-2.626,0.213-3.295,0.637c-0.669,0.426-1.002,1.078-1.002,1.957c0,0.523,0.123,0.963,0.368,1.318    c0.247,0.357,0.594,0.68,1.044,0.969c0.45,0.287,0.968,0.549,1.555,0.781c0.587,0.234,1.234,0.475,1.945,0.721    c1.473,0.551,2.755,1.094,3.847,1.629s1.999,1.16,2.723,1.873c0.723,0.715,1.262,1.553,1.616,2.514s0.532,2.129,0.532,3.502    C60.258,71.857,59.33,73.926,57.475,75.395z M57.156,22.538L63.297,1.94c0,0-6.448,4.862-14.327,1.236    C39.418-1.22,34.644,1.94,34.644,1.94l6.549,20.598H57.156z M41.544,22.949c-0.42,0-0.761,0.341-0.761,0.761v1.363    c0,0.419,0.341,0.76,0.761,0.76h15.67c0.421,0,0.761-0.341,0.761-0.76V23.71c0-0.42-0.34-0.761-0.761-0.761H41.544z"/>
	</g>
</g>
<text x="0.0" y="117.5" font-size="5.0" font-weight="bold" font-family="Helvetica Neue, Helvetica, Arial-Unicode, Arial, Sans-serif" fill="#f0f0f0">Created by Roman Trilo-Denysyuk</text><text x="0.0" y="122.5" font-size="5.0" font-weight="bold" font-family="Helvetica Neue, Helvetica, Arial-Unicode, Arial, Sans-serif" fill="#f0f0f0">from the Noun Project</text></svg>